# xmcd
#
# Track frame offsets:
#	150
#	13620
#	25745
#	38428
#	52566
#	66753
#	78800
#	90980
#	105603
#	120712
#	133564
#	145104
#	159915
#	173610
#	186463
#	199930
#	213411
#	227911
#	244086
#	256208
#	267296
#	281277
#	293070
#	306698
#	320759
#
# Disc length: 4462 seconds
# Revision: 0
# Processed by: cddbd v1.5.2PL0 Copyright (c) Steve Scherf et al.
# Submitted via: dBpowerAMP V12.0
#
DISCID=53116c19
DTITLE=藤山一郎 - 国民的歌手 藤山一郎全集 ～テイチク・ビクター編～ [Disc2: テイチク編 2]
DYEAR=1938
DGENRE=歌謡曲
TTITLE0=歓喜の丘
TTITLE1=友情夜曲
TTITLE2=躍進日本行進曲
TTITLE3=波上の月
TTITLE4=男の魂
TTITLE5=軍神南郷少佐
TTITLE6=月下の乾杯
TTITLE7=吁嗟飯塚部隊長
TTITLE8=軍艦旗の歌
TTITLE9=せめて淡雪
TTITLE10=可愛いソニヤ
TTITLE11=明日の希望
TTITLE12=愛馬進軍歌
TTITLE13=戦場宵待草
TTITLE14=想い出の旅情
TTITLE15=五人の特務兵
TTITLE16=国境に咲く花
TTITLE17=泣くな妹よ
TTITLE18=街のセレナーデ
TTITLE19=山は青いぞ
TTITLE20=緑の旅情
TTITLE21=月下一路
TTITLE22=青春プレリュード
TTITLE23=東京の灯
TTITLE24=懐しのヴィオロン
EXTD=
EXTT0=
EXTT1=
EXTT2=
EXTT3=
EXTT4=
EXTT5=
EXTT6=
EXTT7=
EXTT8=
EXTT9=
EXTT10=
EXTT11=
EXTT12=
EXTT13=
EXTT14=
EXTT15=
EXTT16=
EXTT17=
EXTT18=
EXTT19=
EXTT20=
EXTT21=
EXTT22=
EXTT23=
EXTT24=
PLAYORDER=
